<svg width="24" height="24" viewBox="0 0 24 24" fill="none" xmlns="http://www.w3.org/2000/svg">
<path d="M9.88447 9.88447C10.4459 9.323 11.206 9.00524 12 9C13.641 9 15 10.359 15 12C15 13.642 13.641 15 12 15C10.358 15 9 13.642 9 12C9.00524 11.206 9.323 10.4459 9.88447 9.88447Z" fill="black"/>
<path fill-rule="evenodd" clip-rule="evenodd" d="M2.05229 11.684C2.07329 11.617 4.36729 5 12.0003 5C19.6333 5 21.9273 11.617 21.9493 11.684L22.0543 12L21.9483 12.316C21.9273 12.383 19.6333 19 12.0003 19C4.36729 19 2.07329 12.383 2.05129 12.316L1.94629 12L2.05229 11.684ZM4.07429 12C4.57629 13.154 6.64929 17 12.0003 17C17.3483 17 19.4223 13.158 19.9263 12C19.4243 10.846 17.3513 7 12.0003 7C6.65229 7 4.57829 10.842 4.07429 12Z" fill="black"/>
</svg>
